#!OML:ASF H:\GeneralSubjects\Female5\Project 1\Capture day 1\Session 1\Female5.ASF
:FULLY-SPECIFIED
:DEGREES
821
root 25.7499 15.4809 -2.58505 557.209 -63.0159 889.596
lowerback 9.26732 3.27289 -2.69535
upperback -12.3721 3.43347 -0.0553038
thorax -19.7734 1.67787 0.628488
lowerneck -13.4673 3.91749 2.87628
upperneck 36.3158 6.63671 -8.90589
head 15.4583 1.30108 -3.37102
rclavicle -4.96962e-015 1.11319e-014
rhumerus -50.1833 31.9229 -95.2584
rradius 37.4886
rwrist -9.12611
rhand -24.4461 -17.6286
rfingers 7.12502
rthumb 2.04652 -47.5986
lclavicle -4.96962e-015 1.11319e-014
lhumerus -47.6047 -14.3305 93.9974
lradius 45.0237
lwrist -8.65645
lhand -28.4851 31.7638
lfingers 7.12502
lthumb -1.85441 61.7354
rfemur -9.31266 -15.8478 12.2343
rtibia 49.021
rfoot -23.4036 -26.5528
rtoes 11.1195
lfemur -9.39897 -13.9481 -39.7071
ltibia 8.00732
lfoot -18.5928 14.2799
ltoes -63.4134
822
root 25.5879 15.4713 -2.65249 558.175 -63.4678 888.435
lowerback 9.54028 3.27766 -2.76318
upperback -12.3238 3.41501 -0.164073
thorax -19.8948 1.67018 0.52964
lowerneck -13.3919 4.00959 2.70468
upperneck 36.1499 6.85469 -8.95132
head 15.3746 1.37691 -3.31149
rclavicle -2.36554e-014 -1.82882e-014
rhumerus -49.4606 30.5682 -93.8844
rradius 36.9164
rwrist -10.1251
rhand -23.5303 -17.8489
rfingers 7.12502
rthumb 2.93099 -47.8085
lclavicle -2.36554e-014 -1.82882e-014
lhumerus -46.4865 -16.2562 95.0075
lradius 46.315
lwrist -9.58354
lhand -29.5542 30.4299
lfingers 7.12502
lthumb -2.88691 60.3901
rfemur -12.1933 -16.3469 11.6668
rtibia 49.493
rfoot -25.6446 -26.5568
rtoes 4.39817
lfemur -8.16057 -13.1577 -40.5345
ltibia 7.19744
lfoot -18.3976 13.511
ltoes -64.1331
823
root 25.4362 15.4622 -2.72313 558.97 -63.9963 887.502
lowerback 9.70871 3.20532 -2.87989
upperback -12.2056 3.31245 -0.129361
thorax -19.8599 1.65112 0.655663
lowerneck -13.2649 4.08087 2.56594
upperneck 35.7891 7.06289 -9.10839
head 15.1906 1.45014 -3.29668
rclavicle 3.63776e-014 2.3059e-014
rhumerus -48.975 29.7339 -92.8538
rradius 36.394
rwrist -10.6424
rhand -23.4975 -18.7829
rfingers 7.12502
rthumb 2.96267 -48.742
lclavicle 3.63776e-014 2.3059e-014
lhumerus -45.2306 -17.729 95.785
lradius 47.4371
lwrist -9.79075
lhand -29.5992 29.3373
lfingers 7.12502
lthumb -2.93038 59.2969
rfemur -15.0825 -16.3583 11.4856
rtibia 49.3599
rfoot -27.6614 -25.4548
rtoes 2.50275
lfemur -7.00265 -12.7067 -41.0752
ltibia 6.41009
lfoot -17.7697 13.9469
ltoes -65.8951
824
root 25.2914 15.4572 -2.7951 559.452 -64.5738 886.954
lowerback 9.85647 3.07217 -2.96569
upperback -12.0535 3.15876 0.0488738
thorax -19.7697 1.62198 0.948708
lowerneck -13.253 4.15975 2.52246
upperneck 35.4437 7.29307 -9.37554
head 15.0567 1.52823 -3.34356
rclavicle -8.34896e-015 1.11319e-014
rhumerus -48.4627 29.0857 -91.8327
rradius 35.694
rwrist -10.8573
rhand -23.5001 -19.1685
rfingers 7.12502
rthumb 2.96009 -49.1277
lclavicle -8.34896e-015 1.11319e-014
lhumerus -44.1333 -18.442 96.2975
lradius 48.5885
lwrist -9.63405
lhand -29.8462 29.0409
lfingers 7.12502
lthumb -3.16894 58.9971
rfemur -17.9074 -15.8507 11.6791
rtibia 48.6062
rfoot -28.629 -25.4017
rtoes 5.46334
lfemur -5.8362 -12.7026 -41.3407
ltibia 5.62795
lfoot -17.6552 13.6311
ltoes -66.1717
825
root 25.1488 15.4588 -2.8695 560.145 -65.099 886.206
lowerback 10.2713 2.96137 -3.16648
upperback -12.0095 2.99094 0.198183
thorax -20.0186 1.5972 1.26328
lowerneck -13.4728 4.21265 2.55291
upperneck 35.3511 7.4867 -9.67896
head 15.1038 1.57613 -3.43988
rclavicle 1.0138e-014 2.22639e-014
rhumerus -48.132 28.2261 -90.786
rradius 34.8763
rwrist -11.0487
rhand -23.7064 -18.9495
rfingers 7.12502
rthumb 2.76093 -48.9114
lclavicle 1.0138e-014 2.22639e-014
lhumerus -43.4104 -18.8274 96.7148
lradius 49.7573
lwrist -9.16115
lhand -30.4239 30.0157
lfingers 7.12502
lthumb -3.72684 59.9628
rfemur -20.5366 -14.9909 11.785
rtibia 47.2847
rfoot -30.2611 -25.6582
rtoes 6.22639
lfemur -4.7342 -12.9609 -41.7023
ltibia 4.95752
lfoot -17.7724 13.1287
ltoes -65.5831
826
root 25.0039 15.4644 -2.95017 561.247 -65.5102 885.084
lowerback 10.5725 2.8375 -3.52834
upperback -11.9553 2.76166 0.27939
thorax -20.1762 1.5613 1.61257
lowerneck -13.0253 4.35457 2.95872
upperneck 34.6182 7.72052 -10.1451
head 14.718 1.72257 -3.6302
rclavicle -1.98785e-015 -7.95139e-016
rhumerus -47.8444 27.4215 -89.8636
rradius 34.2093
rwrist -11.6569
rhand -24.3058 -19.5734
rfingers 7.12502
rthumb 2.18201 -49.542
lclavicle -1.98785e-015 -7.95139e-016
lhumerus -42.7247 -19.1583 96.9933
lradius 50.5393
lwrist -8.20315
lhand -30.6486 30.6751
lfingers 7.12502
lthumb -3.94383 60.6184
rfemur -23.0279 -14.0024 11.6703
rtibia 45.486
rfoot -31.8864 -26.0646
rtoes 6.35713
lfemur -3.75519 -13.3411 -42.2405
ltibia 4.48008
lfoot -17.7067 13.272
ltoes -65.3821
827
root 24.858 15.475 -3.03768 562.461 -65.9396 883.92
lowerback 11.2033 2.69299 -3.80164
upperback -12.0634 2.47515 0.266126
thorax -20.7691 1.4778 1.80802
lowerneck -13.0652 4.47212 3.37563
upperneck 34.6441 7.84406 -10.3013
head 14.7806 1.81146 -3.75233
rclavicle -3.65764e-014 1.03368e-014
rhumerus -47.955 26.6087 -89.3345
rradius 33.7791
rwrist -12.8313
rhand -25.2216 -20.3723
rfingers 7.12502
rthumb 1.29756 -50.3481
lclavicle -3.65764e-014 1.03368e-014
lhumerus -42.2959 -19.2795 97.1865
lradius 51.043
lwrist -6.9559
lhand -31.9115 30.8522
lfingers 7.12502
lthumb -5.16331 60.7693
rfemur -25.3133 -12.9395 11.5258
rtibia 43.1195
rfoot -32.8271 -26.7497
rtoes 5.60161
lfemur -2.75429 -13.7342 -42.756
ltibia 3.86463
lfoot -17.5599 13.5653
ltoes -65.696
828
root 24.7103 15.4876 -3.13427 563.329 -66.4262 883.155
lowerback 11.8486 2.53637 -3.99825
upperback -12.1762 2.19485 0.326257
thorax -21.3817 1.39872 2.05276
lowerneck -13.2945 4.49131 3.22256
upperneck 34.1921 7.86999 -10.105
head 14.6038 1.86005 -3.6032
rclavicle -4.05521e-014 -2.38542e-014
rhumerus -48.3099 26.0367 -89.085
rradius 33.5944
rwrist -14.5026
rhand -26.197 -20.5597
rfingers 7.12502
rthumb 0.355465 -50.5392
lclavicle -4.05521e-014 -2.38542e-014
lhumerus -42.0946 -19.2525 97.4013
lradius 51.4801
lwrist -5.7936
lhand -32.9489 31.8173
lfingers 7.12502
lthumb -6.16488 61.7076
rfemur -27.2631 -11.4111 11.4774
rtibia 40.2325
rfoot -33.7562 -26.8402
rtoes 4.81385
lfemur -1.61935 -14.4054 -43.0488
ltibia 3.01508
lfoot -17.9341 13.6171
ltoes -65.5623
829
root 24.5601 15.4998 -3.24395 563.854 -66.8304 882.817
lowerback 11.3568 2.26207 -4.79207
upperback -11.8039 1.80401 0.903438
thorax -20.5662 1.41195 3.31382
lowerneck -13.5019 4.63465 3.27462
upperneck 33.3892 8.18388 -10.4535
head 14.3373 2.00366 -3.65577
rclavicle -1.59028e-015 2.62396e-014
rhumerus -47.704 26.3706 -88.168
rradius 33.4116
rwrist -15.6657
rhand -26.4094 -21.3523
rfingers 7.12502
rthumb 0.150371 -51.332
lclavicle -1.59028e-015 2.62396e-014
lhumerus -40.9709 -18.3863 97.4891
lradius 51.4609
lwrist -5.15603
lhand -31.5694 32.437
lfingers 7.12502
lthumb -4.83298 62.3619
rfemur -28.98 -9.19456 11.4474
rtibia 36.8986
rfoot -34.1601 -26.2832
rtoes 5.35391
lfemur -0.429305 -15.1599 -43.1335
ltibia 1.99758
lfoot -18.3442 13.9139
ltoes -65.428
830
root 24.4083 15.5125 -3.36413 564.527 -67.2191 882.392
lowerback 11.5423 2.12986 -5.2281
upperback -11.8213 1.54804 1.07299
thorax -20.7297 1.3899 3.83503
lowerneck -13.6459 4.61738 3.47486
upperneck 33.0577 8.10823 -10.4471
head 14.219 2.02243 -3.67816
rclavicle -2.56432e-014 -2.70347e-014
rhumerus -47.7522 25.4285 -87.4023
rradius 33.0604
rwrist -15.2624
rhand -26.4377 -22.7051
rfingers 7.12502
rthumb 0.123019 -52.6848
lclavicle -2.56432e-014 -2.70347e-014
lhumerus -40.8089 -18.2381 97.636
lradius 51.4039
lwrist -4.63184
lhand -30.4101 32.4127
lfingers 7.12502
lthumb -3.71349 62.3601
rfemur -30.3987 -6.51615 11.1075
rtibia 32.9443
rfoot -33.2786 -26.0093
rtoes 5.82627
lfemur 0.744566 -15.6533 -43.1876
ltibia 0.880815
lfoot -18.416 14.3871
ltoes -65.7268
831
root 24.2401 15.5183 -3.49028 565.144 -67.4441 882.126
lowerback 11.3636 2.03257 -5.65986
upperback -11.81 1.35581 1.22018
thorax -20.5989 1.38333 4.31266
lowerneck -13.8352 4.58462 3.71052
upperneck 32.762 7.98209 -10.3796
head 14.1206 2.02961 -3.6913
rclavicle -1.09332e-014 -2.38542e-014
rhumerus -47.9647 24.6623 -86.8636
rradius 32.7974
rwrist -14.9022
rhand -26.8572 -23.6002
rfingers 7.12502
rthumb -0.282128 -53.5798
lclavicle -1.09332e-014 -2.38542e-014
lhumerus -40.9393 -18.3333 97.8649
lradius 51.4921
lwrist -4.21684
lhand -30.7124 32.6278
lfingers 7.12502
lthumb -4.00546 62.5699
rfemur -31.6076 -3.19177 10.3655
rtibia 28.4385
rfoot -31.7667 -26.0256
rtoes 5.55316
lfemur 2.00705 -16.2251 -43.2553
ltibia -0.454741
lfoot -18.7719 14.9207
ltoes -65.9303
832
root 24.0744 15.5207 -3.62194 565.658 -67.7341 882.042
lowerback 11.2474 1.92754 -6.01918
upperback -11.8316 1.16126 1.35938
thorax -20.5489 1.36575 4.74033
lowerneck -14.0737 4.57346 3.82355
upperneck 32.4534 7.84048 -10.0401
head 14.0044 2.05344 -3.57035
rclavicle -2.40529e-014 -1.43125e-014
rhumerus -48.3447 23.973 -86.4994
rradius 32.694
rwrist -14.7062
rhand -26.8751 -23.5726
rfingers 7.12502
rthumb -0.299465 -53.5521
lclavicle -2.40529e-014 -1.43125e-014
lhumerus -41.2551 -18.5177 98.1267
lradius 51.4373
lwrist -4.10623
lhand -30.7607 33.013
lfingers 7.12502
lthumb -4.05205 62.9543
rfemur -32.5866 0.708869 9.20034
rtibia 23.4485
rfoot -29.8909 -26.5279
rtoes 4.43348
lfemur 3.19271 -16.8754 -43.1753
ltibia -1.79591
lfoot -19.1504 15.3677
ltoes -66.139
833
root 23.9046 15.5189 -3.75596 566.035 -68.0807 882.145
lowerback 11.2038 1.82637 -6.25762
upperback -11.903 0.988467 1.5015
thorax -20.6119 1.34406 5.09841
lowerneck -14.2873 4.57115 3.9566
upperneck 32.1231 7.71591 -9.73532
head 13.8796 2.08283 -3.46561
rclavicle -3.97569e-015 -4.77083e-015
rhumerus -49.0609 23.3035 -86.2344
rradius 32.8928
rwrist -14.513
rhand -26.6806 -23.2317
rfingers 7.12502
rthumb -0.111598 -53.2114
lclavicle -3.97569e-015 -4.77083e-015
lhumerus -41.6273 -18.6967 98.4862
lradius 51.0832
lwrist -4.01193
lhand -30.271 33.7104
lfingers 7.12502
lthumb -3.57919 63.6601
rfemur -33.3917 5.15639 7.50354
rtibia 18.1478
rfoot -27.4041 -27.5638
rtoes 2.45602
lfemur 4.50232 -17.8185 -43.0739
ltibia -3.35222
lfoot -19.1758 16.3938
ltoes -66.5675
